<svg width="122" height="40" viewBox="0 0 122 40" fill="none" xmlns="http://www.w3.org/2000/svg">
<path fill-rule="evenodd" clip-rule="evenodd" d="M36.0819 13.9274H26.0724H24.2208C24.423 14.3788 24.5548 14.8461 24.6166 15.3015C24.7776 15.3464 24.9363 15.4082 25.0899 15.4903C26.2321 16.1016 26.6621 17.5225 26.0511 18.6643C25.4402 19.8061 24.0197 20.2365 22.8775 19.6259C21.7353 19.0154 21.3057 17.5937 21.9159 16.4523C22.2587 15.8116 22.8556 15.3957 23.5154 15.2608C23.4303 14.8261 23.2627 14.3569 23.0152 13.9274H15.0407C14.7478 14.3367 14.5471 14.7719 14.4675 15.1557C14.7239 15.3003 14.9248 15.5372 15.0374 15.828C16.0127 16.2564 16.8789 17.2169 17.5457 18.6116C17.6442 18.8176 17.6446 19.0529 17.5504 19.2577C17.964 20.2924 18.2001 21.4233 18.2001 22.3747C18.2001 23.8816 18.1348 24.8256 16.8718 25.0758C16.751 25.1942 16.59 25.2606 16.4207 25.2606H15.4505C15.0925 25.2606 14.8009 24.9694 14.8009 24.6106V24.5977L14.8013 24.5957C14.8095 24.2447 15.0984 23.9609 15.4505 23.9609H16.4207C16.5146 23.9609 16.6072 23.9816 16.6924 24.0211C16.9223 23.973 16.9606 23.9074 16.9817 23.8706C17.1032 23.6611 17.1275 23.1436 17.1275 22.3759C17.1275 21.5468 16.916 20.5535 16.547 19.638C16.3813 19.5646 16.246 19.4348 16.1682 19.2714C15.5319 17.9408 14.6711 17.1137 13.9218 17.1137C13.1568 17.1137 12.2534 18.0061 11.621 19.3871C11.5346 19.5755 11.3739 19.7201 11.18 19.7881C10.8419 20.6735 10.6562 21.5886 10.6562 22.3751C10.6562 22.977 10.6684 23.6384 10.8142 23.873C10.8365 23.9089 10.8814 23.9805 11.1413 24.0286C11.2313 23.9836 11.3305 23.9598 11.433 23.9598H12.4035C12.7487 23.9598 13.0317 24.2306 13.052 24.5711L13.0532 24.575V24.6094C13.0532 24.9683 12.7616 25.2595 12.4035 25.2595H11.433C11.2731 25.2595 11.1195 25.1993 11.0006 25.0918C10.6523 25.0347 10.1884 24.8967 9.90339 24.4394C9.63328 24.0047 9.58364 23.4031 9.58364 22.3747C9.58364 21.4358 9.80567 20.3549 10.2099 19.3238C10.1422 19.1361 10.1497 18.9313 10.2329 18.7507C10.6328 17.8763 11.139 17.1305 11.6956 16.5946C12.0201 16.2811 12.3691 16.0356 12.7335 15.8644C12.8519 15.5321 13.088 15.264 13.3874 15.1193C13.4429 14.727 13.5766 14.3218 13.7767 13.9274H12.2618H2.25228C1.01349 13.9274 0 14.9409 0 16.1797V25.4845C0 26.7235 1.01349 27.7375 2.25228 27.7375H12.2618V37.747C12.2618 38.986 13.2761 40 14.5149 40H23.8193C25.0581 40 26.0724 38.986 26.0724 37.747V27.7375H28.6176H36.0819C37.3207 27.7375 38.335 26.7235 38.335 25.4845V16.1797C38.335 14.9409 37.3207 13.9274 36.0819 13.9274ZM19.1671 0C22.6759 0 25.5195 2.84439 25.5195 6.35315C25.5195 9.86115 22.6759 12.7055 19.1671 12.7055C15.6583 12.7055 12.8147 9.86115 12.8147 6.35315C12.8147 2.84439 15.6583 0 19.1671 0ZM73.9667 7.6226C73.9667 8.61633 73.7849 9.47068 73.4213 10.1857C73.0578 10.8976 72.5594 11.446 71.9262 11.8308C71.296 12.2125 70.5795 12.4034 69.7767 12.4034C68.9708 12.4034 68.2513 12.2125 67.6181 11.8308C66.9879 11.446 66.491 10.8961 66.1275 10.1811C65.7639 9.46614 65.5821 8.6133 65.5821 7.6226C65.5821 6.62888 65.7639 5.77604 66.1275 5.06408C66.491 4.34908 66.9879 3.80072 67.6181 3.41898C68.2513 3.03422 68.9708 2.84184 69.7767 2.84184C70.5795 2.84184 71.296 3.03422 71.9262 3.41898C72.5594 3.80072 73.0578 4.34908 73.4213 5.06408C73.7849 5.77604 73.9667 6.62888 73.9667 7.6226ZM72.5761 7.6226C72.5761 6.8652 72.4534 6.22746 72.208 5.70939C71.9656 5.18829 71.6323 4.79444 71.2082 4.52783C70.7871 4.25819 70.3099 4.12337 69.7767 4.12337C69.2404 4.12337 68.7617 4.25819 68.3406 4.52783C67.9195 4.79444 67.5863 5.18829 67.3409 5.70939C67.0985 6.22746 66.9773 6.8652 66.9773 7.6226C66.9773 8.38001 67.0985 9.01927 67.3409 9.54036C67.5863 10.0584 67.9195 10.4523 68.3406 10.7219C68.7617 10.9885 69.2404 11.1218 69.7767 11.1218C70.3099 11.1218 70.7871 10.9885 71.2082 10.7219C71.6323 10.4523 71.9656 10.0584 72.208 9.54036C72.4534 9.01927 72.5761 8.38001 72.5761 7.6226ZM91.9017 5.99569H90.4838C90.4293 5.69273 90.3278 5.42612 90.1793 5.19587C90.0309 4.96561 89.8491 4.7702 89.634 4.60963C89.4189 4.44906 89.178 4.32788 88.9114 4.24608C88.6478 4.16428 88.3676 4.12337 88.0707 4.12337C87.5344 4.12337 87.0542 4.25819 86.6301 4.52783C86.209 4.79747 85.8757 5.19284 85.6303 5.71393C85.3879 6.23503 85.2668 6.87125 85.2668 7.6226C85.2668 8.38001 85.3879 9.01927 85.6303 9.54036C85.8757 10.0615 86.2105 10.4553 86.6346 10.7219C87.0588 10.9885 87.536 11.1218 88.0661 11.1218C88.36 11.1218 88.6387 11.0824 88.9023 11.0037C89.1689 10.9219 89.4098 10.8022 89.6249 10.6447C89.84 10.4871 90.0218 10.2947 90.1702 10.0675C90.3217 9.83727 90.4262 9.57369 90.4838 9.27679L91.9017 9.28133C91.8259 9.73881 91.679 10.1599 91.4609 10.5447C91.2458 10.9264 90.9685 11.2567 90.6292 11.5354C90.2929 11.8111 89.9082 12.0247 89.4749 12.1761C89.0417 12.3276 88.5691 12.4034 88.0571 12.4034C87.2512 12.4034 86.5331 12.2125 85.903 11.8308C85.2728 11.446 84.776 10.8961 84.4124 10.1811C84.0519 9.46614 83.8716 8.6133 83.8716 7.6226C83.8716 6.62888 84.0534 5.77604 84.4169 5.06408C84.7805 4.34908 85.2774 3.80072 85.9075 3.41898C86.5377 3.03422 87.2542 2.84184 88.0571 2.84184C88.5509 2.84184 89.0114 2.91304 89.4386 3.05543C89.8688 3.19479 90.2551 3.40081 90.5974 3.67347C90.9398 3.94311 91.223 4.27334 91.4472 4.66416C91.6714 5.05196 91.8229 5.4958 91.9017 5.99569ZM93.3201 2.96934V4.17817H96.2195V12.2764H97.6192V4.17817H100.523V2.96934H93.3201ZM103.716 2.96934V12.2764H102.312V2.96934H103.716ZM109.361 10.5495L106.771 2.96934H105.253L108.603 12.2764H110.225L113.574 2.96934H112.056L109.466 10.5495H109.361ZM115.115 2.96934V12.2764H121.005V11.0676H116.519V8.21819H120.646V7.01391H116.519V4.17817H120.95V2.96934H115.115ZM74.7475 12.2764H76.2381L77.0904 9.81329H80.7269L81.5778 12.2764H83.0684L79.7191 2.96934H78.0967L74.7475 12.2764ZM80.3187 8.63173L78.9465 4.65988H78.8738L77.4993 8.63173H80.3187ZM57.4368 2.96934V12.2764H58.8411V8.75443H60.7498C60.7801 8.75443 60.8103 8.75422 60.8402 8.7538L62.7311 12.2764H64.3308L62.271 8.51495C62.3664 8.47912 62.4576 8.43928 62.5448 8.39542C63.0235 8.15608 63.381 7.8213 63.6173 7.3911C63.8566 6.95786 63.9763 6.45645 63.9763 5.88688C63.9763 5.31428 63.8582 4.80985 63.6218 4.37358C63.3855 3.93428 63.028 3.59042 62.5494 3.34199C62.0737 3.09356 61.4754 2.96934 60.7543 2.96934H57.4368ZM60.6225 7.54561H58.8411V4.17362H60.6043C61.0679 4.17362 61.442 4.24331 61.7268 4.38267C62.0146 4.519 62.2252 4.71593 62.3585 4.97345C62.4948 5.23097 62.563 5.53544 62.563 5.88688C62.563 6.23529 62.4963 6.53371 62.363 6.78214C62.2297 7.03057 62.0192 7.21992 61.7314 7.3502C61.4466 7.48047 61.077 7.54561 60.6225 7.54561ZM49.0544 12.2764V2.96934H52.3719C53.096 2.96934 53.6958 3.10113 54.1715 3.36471C54.6472 3.62829 55.0031 3.98882 55.2394 4.44629C55.4758 4.90074 55.5939 5.41274 55.5939 5.98232C55.5939 6.55492 55.4742 7.06995 55.2349 7.52743C54.9986 7.98188 54.6411 8.3424 54.1624 8.60901C53.6868 8.87259 53.0884 9.00438 52.3674 9.00438H50.4587V12.2764H49.0544ZM50.4587 4.17362V7.81373H52.2401C52.6976 7.81373 53.0687 7.73496 53.3535 7.57742C53.6383 7.41685 53.8473 7.19871 53.9806 6.92302C54.1139 6.64732 54.1806 6.33375 54.1806 5.98232C54.1806 5.63088 54.1139 5.31883 53.9806 5.04616C53.8473 4.77349 53.6368 4.5599 53.349 4.40539C53.0642 4.25088 52.6885 4.17362 52.2219 4.17362H50.4587ZM108.882 36.5966C110.059 37.1426 111.432 37.4156 113.002 37.4156C114.316 37.4156 115.434 37.2535 116.355 36.9293C117.294 36.5881 118.07 36.1615 118.684 35.6496C119.316 35.1207 119.819 34.5661 120.194 33.986C120.587 33.3888 120.877 32.8342 121.065 32.3223C121.252 31.7934 121.372 31.3668 121.423 31.0426L121.525 30.5307H117.609L117.507 30.8635C117.456 31.0853 117.345 31.3668 117.174 31.7081C117.004 32.0323 116.748 32.365 116.406 32.7063C116.082 33.0305 115.639 33.3035 115.075 33.5253C114.529 33.7471 113.847 33.858 113.028 33.858C111.851 33.858 110.861 33.5594 110.059 32.9622C109.274 32.3479 108.677 31.5716 108.267 30.6331C107.875 29.6776 107.679 28.6879 107.679 27.6642C107.679 26.6404 107.875 25.6593 108.267 24.7208C108.677 23.7824 109.274 23.0145 110.059 22.4173C110.861 21.8031 111.851 21.4959 113.028 21.4959C113.847 21.4959 114.529 21.6154 115.075 21.8543C115.639 22.0761 116.082 22.3491 116.406 22.6733C116.748 22.9975 117.004 23.3302 117.174 23.6715C117.345 23.9956 117.456 24.2772 117.507 24.5161L117.609 24.8488H121.525L121.423 24.3625C121.372 24.0212 121.252 23.5947 121.065 23.0828C120.877 22.5538 120.587 21.9993 120.194 21.4191C119.819 20.8219 119.316 20.2674 118.684 19.7555C118.07 19.2266 117.294 18.8 116.355 18.4758C115.434 18.1345 114.316 17.9639 113.002 17.9639C111.432 17.9639 110.059 18.2369 108.882 18.7829C107.721 19.3289 106.749 20.0712 105.964 21.0096C105.179 21.931 104.59 22.9719 104.198 24.1322C103.805 25.2924 103.609 26.4698 103.609 27.6642C103.609 28.8756 103.805 30.0615 104.198 31.2218C104.59 32.3821 105.179 33.4314 105.964 34.3699C106.749 35.2913 107.721 36.0335 108.882 36.5966ZM85.5801 37.1597V18.2199H89.5216V25.7702H96.8928V18.2199H100.834V37.1597H96.8928V29.1999H89.5216V37.1597H85.5801ZM69.1438 36.5966C70.3382 37.1426 71.7203 37.4156 73.2901 37.4156C74.2456 37.4156 75.1244 37.3132 75.9263 37.1085C76.7453 36.8867 77.4961 36.5881 78.1786 36.2127L79.0232 37.1597H83.2207L80.5845 34.2163C81.3523 33.312 81.9239 32.2882 82.2993 31.145C82.6747 30.0018 82.8624 28.8415 82.8624 27.6642C82.8624 26.4527 82.6576 25.2754 82.2481 24.1322C81.8557 22.9719 81.2585 21.931 80.4565 21.0096C79.6546 20.0882 78.6564 19.3545 77.462 18.8085C76.2676 18.2454 74.877 17.9639 73.2901 17.9639C71.7203 17.9639 70.3382 18.2454 69.1438 18.8085C67.9494 19.3545 66.9427 20.0882 66.1237 21.0096C65.3217 21.931 64.716 22.9719 64.3065 24.1322C63.914 25.2754 63.7178 26.4527 63.7178 27.6642C63.7178 28.8756 63.914 30.0615 64.3065 31.2218C64.716 32.3821 65.3217 33.4314 66.1237 34.3699C66.9427 35.2913 67.9494 36.0335 69.1438 36.5966ZM75.568 33.3717C74.8855 33.6959 74.1262 33.858 73.2901 33.858C72.0957 33.858 71.089 33.5594 70.27 32.9622C69.468 32.365 68.8623 31.5972 68.4528 30.6587C68.0433 29.7032 67.8385 28.705 67.8385 27.6642C67.8385 26.6233 68.0433 25.6337 68.4528 24.6952C68.8623 23.7568 69.468 22.9889 70.27 22.3917C71.089 21.7945 72.0957 21.4959 73.2901 21.4959C74.4845 21.4959 75.4912 21.7945 76.3102 22.3917C77.1293 22.9889 77.7435 23.7568 78.153 24.6952C78.5626 25.6337 78.7673 26.6233 78.7673 27.6642C78.7673 28.978 78.4687 30.1554 77.8715 31.1962L75.1329 28.1505L72.6758 30.198L75.568 33.3717ZM48.7881 37.1597V18.2199H62.0204V21.6495H52.7296V26.6148H60.843V29.9165H52.7296V37.1597H48.7881Z" fill="#3FADB1"/>
</svg>
